<svg version="1.2" baseProfile="tiny-ps" xmlns="http://www.w3.org/2000/svg" viewBox="0 0 1041 711" width="1041" height="711">
	<title>Warstwa 1</title>
	<defs>
		<linearGradient id="grd1" gradientUnits="userSpaceOnUse"  x1="100.565" y1="40.192" x2="-99.927" y2="160.487">
			<stop offset="0" stop-color="#2a6aae"  />
			<stop offset="1" stop-color="#193c48" stop-opacity="0.74" />
		</linearGradient>
		<linearGradient id="grd2" gradientUnits="userSpaceOnUse"  x1="141.615" y1="115.764" x2="-58.606" y2="235.897">
			<stop offset="0" stop-color="#2a6aae"  />
			<stop offset="1" stop-color="#193c48" stop-opacity="0.74" />
		</linearGradient>
		<linearGradient id="grd3" gradientUnits="userSpaceOnUse"  x1="3.438" y1="391.946" x2="3.438" y2="422.713">
			<stop offset="0" stop-color="#2a6aae"  />
			<stop offset="1" stop-color="#193c48" stop-opacity="0.74" />
		</linearGradient>
		<linearGradient id="grd4" gradientUnits="userSpaceOnUse"  x1="3.438" y1="566.292" x2="3.438" y2="248.369">
			<stop offset="0" stop-color="#2a6aae"  />
			<stop offset="1" stop-color="#193c48" stop-opacity="0.74" />
		</linearGradient>
		<linearGradient id="grd5" gradientUnits="userSpaceOnUse"  x1="719.09" y1="282.407" x2="540.642" y2="517.886">
			<stop offset="0" stop-color="#2a6aae"  />
			<stop offset="1" stop-color="#193c48" stop-opacity="0.74" />
		</linearGradient>
		<linearGradient id="grd6" gradientUnits="userSpaceOnUse"  x1="315.83" y1="579.542" x2="315.83" y2="242.801">
			<stop offset="0" stop-color="#2a6aae"  />
			<stop offset="1" stop-color="#193c48" stop-opacity="0.74" />
		</linearGradient>
		<linearGradient id="grd7" gradientUnits="userSpaceOnUse"  x1="509.342" y1="329.789" x2="559.33" y2="329.69">
			<stop offset="0" stop-color="#2a6aae"  />
			<stop offset="1" stop-color="#193c48" stop-opacity="0.74" />
		</linearGradient>
		<linearGradient id="grd8" gradientUnits="userSpaceOnUse"  x1="100.565" y1="40.192" x2="-99.927" y2="160.487">
			<stop offset="0" stop-color="#2a6aae"  />
			<stop offset="1" stop-color="#193c48" stop-opacity="0.74" />
		</linearGradient>
		<linearGradient id="grd9" gradientUnits="userSpaceOnUse"  x1="141.615" y1="115.764" x2="-58.606" y2="235.897">
			<stop offset="0" stop-color="#2a6aae"  />
			<stop offset="1" stop-color="#193c48" stop-opacity="0.74" />
		</linearGradient>
	</defs>
	<style>
		tspan { white-space:pre }
		.shp0 { opacity: 0.741;fill: url(#grd1) } 
		.shp1 { fill: url(#grd2) } 
		.shp2 { fill: #315ea4 } 
		.shp3 { opacity: 0.741;fill: url(#grd3) } 
		.shp4 { opacity: 0.741;fill: url(#grd4) } 
		.shp5 { opacity: 0.741;fill: url(#grd5) } 
		.shp6 { opacity: 0.741;fill: url(#grd6) } 
		.shp7 { opacity: 0.741;fill: url(#grd7) } 
		.shp8 { opacity: 0.741;fill: url(#grd8) } 
		.shp9 { fill: url(#grd9) } 
	</style>
	<g id="Warstwa 1">
		<g id="&lt;Group&gt;">
			<g id="&lt;Group&gt;">
				<path id="&lt;Path&gt;" class="shp0" d="M231.2 174.5C224.78 181.81 215.71 187.5 203.98 191.57C192.25 195.56 179.26 197.55 164.99 197.55C150.01 197.55 136.86 194.47 125.53 188.29C114.27 182.04 105.56 173 99.37 161.17C93.27 149.34 90.14 135.44 89.98 119.47L89.98 108.28C89.98 91.86 92.88 77.66 98.66 65.68C104.53 53.63 112.93 44.44 123.86 38.11C134.88 31.71 147.76 28.5 162.5 28.5C183.02 28.5 199.07 33.17 210.64 42.52C222.21 51.78 229.06 65.3 231.2 83.08L196.49 83.08C194.91 73.67 191.38 66.77 185.91 62.4C180.52 58.03 173.08 55.85 163.57 55.85C151.44 55.85 142.21 60.18 135.87 68.85C129.53 77.51 126.32 90.39 126.24 107.49L126.24 118C126.24 135.25 129.69 148.29 136.58 157.1C143.48 165.91 153.58 170.32 166.89 170.32C180.29 170.32 189.84 167.61 195.54 162.19L195.54 133.82L163.09 133.82L163.09 108.85L231.2 108.85L231.2 174.5Z" />
			</g>
			<g id="&lt;Group&gt;">
				<g id="&lt;Group&gt;" style="opacity: 0.741">
					<path id="&lt;Compound Path&gt;" fill-rule="evenodd" class="shp1" d="M402.38 116.76C402.38 132.96 399.37 147.16 393.34 159.36C387.32 171.56 378.68 180.98 367.43 187.61C356.25 194.24 343.42 197.55 328.91 197.55C314.57 197.55 301.77 194.28 290.52 187.72C279.27 181.17 270.55 171.83 264.37 159.7C258.19 147.49 255.06 133.48 254.98 117.66L254.98 109.53C254.98 93.33 258.03 79.09 264.13 66.81C270.31 54.46 278.99 45 290.16 38.45C301.42 31.82 314.25 28.5 328.68 28.5C343.1 28.5 355.9 31.82 367.07 38.45C378.32 45 387 54.46 393.1 66.81C399.29 79.09 402.38 93.29 402.38 109.41L402.38 116.76ZM366.24 109.3C366.24 92.05 362.99 78.94 356.49 69.98C349.99 61.01 340.72 56.53 328.68 56.53C316.71 56.53 307.48 60.97 300.98 69.86C294.48 78.68 291.19 91.63 291.11 108.74L291.11 116.76C291.11 133.56 294.36 146.59 300.86 155.86C307.36 165.12 316.71 169.76 328.91 169.76C340.88 169.76 350.07 165.31 356.49 156.42C362.91 147.46 366.16 134.42 366.24 117.32L366.24 109.3Z" />
				</g>
			</g>
			<path id="&lt;Path&gt;" class="shp2" d="M45.5 258.62L45.5 258.62C63.21 258.62 77.56 272.69 77.56 290.05L77.56 529.74C77.56 547.09 63.21 561.16 45.5 561.16L45.5 561.16C27.79 561.16 13.44 547.09 13.44 529.74L13.44 290.05C13.44 272.69 27.79 258.62 45.5 258.62Z" />
			<path id="&lt;Path&gt;" class="shp2" d="M29.46 528.44L162.41 528.44C171.26 528.44 178.43 536.92 178.43 547.37L178.43 547.37C178.43 557.82 171.26 566.29 162.41 566.29L29.46 566.29C20.61 566.29 13.44 557.82 13.44 547.37L13.44 547.37C13.44 536.92 20.61 528.44 29.46 528.44Z" />
			<path id="&lt;Path&gt;" class="shp2" d="M29.13 391.95L196.53 391.95C205.2 391.95 212.23 398.83 212.23 407.33L212.23 407.33C212.23 415.83 205.2 422.71 196.53 422.71L29.13 422.71C20.46 422.71 13.44 415.83 13.44 407.33L13.44 407.33C13.44 398.83 20.46 391.95 29.13 391.95Z" />
			<g id="&lt;Group&gt;">
				<path id="&lt;Path&gt;" class="shp3" d="M29.13 391.95L196.53 391.95C205.2 391.95 212.23 398.83 212.23 407.33L212.23 407.33C212.23 415.83 205.2 422.71 196.53 422.71L29.13 422.71C20.46 422.71 13.44 415.83 13.44 407.33L13.44 407.33C13.44 398.83 20.46 391.95 29.13 391.95Z" />
			</g>
			<path id="&lt;Path&gt;" class="shp2" d="M29.13 391.95L196.53 391.95C205.2 391.95 212.23 398.83 212.23 407.33L212.23 407.33C212.23 415.83 205.2 422.71 196.53 422.71L29.13 422.71C20.46 422.71 13.44 415.83 13.44 407.33L13.44 407.33C13.44 398.83 20.46 391.95 29.13 391.95Z" />
			<path id="&lt;Path&gt;" class="shp2" d="M13.44 271.08C13.44 258.54 23.81 248.37 36.61 248.37L189.06 248.37C201.86 248.37 212.23 258.54 212.23 271.08C212.23 283.62 201.86 293.79 189.06 293.79L36.61 293.79C23.81 293.79 13.44 283.62 13.44 271.08Z" />
			<g id="&lt;Group&gt;">
				<path id="&lt;Path&gt;" class="shp4" d="M196.53 422.71C205.2 422.71 212.23 415.82 212.23 407.33C212.23 398.83 205.2 391.95 196.53 391.95L77.56 391.95L77.56 293.79L189.06 293.79C201.86 293.79 212.23 283.62 212.23 271.08C212.23 258.54 201.86 248.37 189.06 248.37L36.6 248.37C23.81 248.37 13.44 258.54 13.44 271.08C13.44 274.34 14.2 277.41 15.46 280.21C14.39 283.35 13.44 286.56 13.44 290.05L13.44 529.74C13.44 533.14 14.39 536.26 15.41 539.33C14.22 541.79 13.44 544.47 13.44 547.37C13.44 557.82 22.08 566.29 32.74 566.29L192.92 566.29C203.59 566.29 212.23 557.82 212.23 547.37C212.23 536.92 203.59 528.44 192.92 528.44L77.56 528.44L77.56 422.71L196.53 422.71Z" />
			</g>
			<path id="&lt;Path&gt;" class="shp2" d="M368.43 257.96L368.43 257.96C391.95 257.96 411.03 276.65 411.03 299.71L411.03 530.95C411.03 554.01 391.95 572.7 368.43 572.7L368.43 572.7C344.9 572.7 325.83 554.01 325.83 530.95L325.83 299.71C325.83 276.65 344.9 257.96 368.43 257.96Z" />
			<path id="&lt;Path&gt;" class="shp2" d="M341.24 252.9L341.24 252.9C358.57 241.47 382.86 245.43 395.48 261.76L544.05 453.91C556.67 470.24 552.84 492.74 535.5 504.18L535.5 504.18C518.17 515.61 493.88 511.65 481.26 495.32L332.7 303.17C320.07 286.84 323.9 264.34 341.24 252.9Z" />
			<path id="&lt;Path&gt;" class="shp2" d="M684.99 252.43L684.99 252.43C667.65 241 643.36 244.96 630.74 261.29L488.7 445.01C476.08 461.33 479.9 483.84 497.24 495.27L497.24 495.27C514.58 506.71 538.87 502.74 551.49 486.41L693.53 302.7C706.15 286.37 702.33 263.87 684.99 252.43Z" />
			<g id="&lt;Group&gt;">
				<path id="&lt;Path&gt;" class="shp5" d="M684.99 252.43L684.99 252.43C667.65 241 643.36 244.96 630.74 261.29L488.7 445.01C476.08 461.33 479.9 483.84 497.24 495.27L497.24 495.27C514.58 506.71 538.87 502.74 551.49 486.41L693.53 302.7C706.15 286.37 702.33 263.87 684.99 252.43Z" />
			</g>
			<path id="&lt;Path&gt;" class="shp2" d="M684.99 252.43L684.99 252.43C667.65 241 643.36 244.96 630.74 261.29L488.7 445.01C476.08 461.33 479.9 483.84 497.24 495.27L497.24 495.27C514.58 506.71 538.87 502.74 551.49 486.41L693.53 302.7C706.15 286.37 702.33 263.87 684.99 252.43Z" />
			<g id="&lt;Group&gt;">
				<path id="&lt;Path&gt;" class="shp6" d="M666.61 242.8C658.64 242.8 651.65 245.89 645.55 250.19C639.92 252.78 634.68 256.2 630.74 261.29L513.7 412.68L401.04 261.32C400.56 260.68 399.84 260.37 399.33 259.78C398.41 258.78 397.38 258.01 396.37 257.1C393.16 254.04 389.72 251.59 385.79 249.84C385.03 249.49 384.26 249.29 383.49 248.99C379.59 247.54 375.68 246.7 371.53 246.54C370.45 246.45 369.53 245.9 368.43 245.9C367.13 245.9 366.03 246.54 364.76 246.65C363.15 246.88 361.64 247.19 360.07 247.62C340.69 251.69 325.83 268.32 325.83 289.25L325.83 529.35C325.83 553.29 344.9 572.7 368.43 572.7C391.95 572.7 411.03 553.29 411.03 529.35L411.03 397.58L483.76 495.3C495.93 511.65 519.35 515.62 536.07 504.17C541.55 500.42 545.07 495.28 547.65 489.76C548.87 488.56 550.42 487.79 551.49 486.41L628.75 386.49L628.75 540.91C628.75 562.25 645.7 579.54 666.61 579.54C687.52 579.54 704.48 562.25 704.48 540.91L704.48 281.44C704.48 260.1 687.52 242.8 666.61 242.8Z" />
			</g>
			<path id="&lt;Path&gt;" class="shp2" d="M558.61 315.03C508.96 315.11 468.63 275.73 468.54 227.06L468.38 149.96C518.03 149.87 558.36 189.25 558.46 237.92L558.61 315.03Z" />
			<g id="&lt;Group&gt;" style="opacity: 0.902">
				<path id="&lt;Path&gt;" class="shp2" d="M558.61 319.75C531.01 319.79 508.58 297.9 508.53 270.84L508.33 172.05C535.94 172 558.36 193.9 558.41 220.96L558.61 319.75Z" />
				<g id="&lt;Group&gt;">
					<path id="&lt;Path&gt;" class="shp7" d="M558.61 319.75C531.01 319.79 508.58 297.9 508.53 270.84L508.33 172.05C535.94 172 558.36 193.9 558.41 220.96L558.61 319.75Z" />
				</g>
			</g>
			<g id="&lt;Group&gt;">
				<path id="&lt;Compound Path&gt;" fill-rule="evenodd" class="shp2" d="M917 471.87L917 400.91L764.4 400.91C763.03 389.06 763.03 381.33 764.4 377.71C777.45 343.14 826.31 287.69 910.95 211.35L958.97 211.35L958.97 373.29L1004.97 373.29L1004.97 400.91L958.97 400.91L958.97 471.87L917 471.87ZM917 373.29L917 286.35C917 272.68 917.49 259.07 918.52 245.46L917 245.46C906.92 260.69 898.81 271.9 889.72 283.94L809.37 372.5L809.37 373.29L917 373.29Z" />
			</g>
			<g id="&lt;Group&gt;">
				<path id="&lt;Path&gt;" class="shp8" d="M231.2 174.5C224.78 181.81 215.71 187.5 203.98 191.57C192.25 195.56 179.26 197.55 164.99 197.55C150.01 197.55 136.86 194.47 125.53 188.29C114.27 182.04 105.56 173 99.37 161.17C93.27 149.34 90.14 135.44 89.98 119.47L89.98 108.28C89.98 91.86 92.88 77.66 98.66 65.68C104.53 53.63 112.93 44.44 123.86 38.11C134.88 31.71 147.76 28.5 162.5 28.5C183.02 28.5 199.07 33.17 210.64 42.52C222.21 51.78 229.06 65.3 231.2 83.08L196.49 83.08C194.91 73.67 191.38 66.77 185.91 62.4C180.52 58.03 173.08 55.85 163.57 55.85C151.44 55.85 142.21 60.18 135.87 68.85C129.53 77.51 126.32 90.39 126.24 107.49L126.24 118C126.24 135.25 129.69 148.29 136.58 157.1C143.48 165.91 153.58 170.32 166.89 170.32C180.29 170.32 189.84 167.61 195.54 162.19L195.54 133.82L163.09 133.82L163.09 108.85L231.2 108.85L231.2 174.5Z" />
			</g>
			<g id="&lt;Group&gt;">
				<g id="&lt;Group&gt;" style="opacity: 0.741">
					<path id="&lt;Compound Path&gt;" fill-rule="evenodd" class="shp9" d="M402.38 116.76C402.38 132.96 399.37 147.16 393.34 159.36C387.32 171.56 378.68 180.98 367.43 187.61C356.25 194.24 343.42 197.55 328.91 197.55C314.57 197.55 301.77 194.28 290.52 187.72C279.27 181.17 270.55 171.83 264.37 159.7C258.19 147.49 255.06 133.48 254.98 117.66L254.98 109.53C254.98 93.33 258.03 79.09 264.13 66.81C270.31 54.46 278.99 45 290.16 38.45C301.42 31.82 314.25 28.5 328.68 28.5C343.1 28.5 355.9 31.82 367.07 38.45C378.32 45 387 54.46 393.1 66.81C399.29 79.09 402.38 93.29 402.38 109.41L402.38 116.76ZM366.24 109.3C366.24 92.05 362.99 78.94 356.49 69.98C349.99 61.01 340.72 56.53 328.68 56.53C316.71 56.53 307.48 60.97 300.98 69.86C294.48 78.68 291.19 91.63 291.11 108.74L291.11 116.76C291.11 133.56 294.36 146.59 300.86 155.86C307.36 165.12 316.71 169.76 328.91 169.76C340.88 169.76 350.07 165.31 356.49 156.42C362.91 147.46 366.16 134.42 366.24 117.32L366.24 109.3Z" />
				</g>
			</g>
			<path id="&lt;Path&gt;" class="shp2" d="M945.53 482.4C963.34 488.39 972.92 507.69 966.93 525.51C960.93 543.32 941.63 552.9 923.82 546.9C906.01 540.91 896.43 521.61 902.42 503.8C908.42 485.98 927.72 476.4 945.53 482.4Z" />
			<path id="&lt;Path&gt;" class="shp2" d="M809.13 480.62L809.33 623.3L51.93 625.27C23.23 625.35 0.02 663.44 0.08 710.34L809.44 708.22L809.44 709.61C813.38 709.6 817.23 708.94 820.95 707.69C826.08 706.59 830.88 703.78 835.12 699.62C853.85 684.18 866.66 652.43 866.61 615.81L866.43 480.62L809.13 480.62Z" />
			<path id="&lt;Path&gt;" class="shp2" d="M1040.18 74.2L1040.18 1.17L699.96 1.83L699.96 0.64C695.4 0.65 690.95 1.21 686.65 2.29C680.71 3.23 675.16 5.66 670.25 9.23C648.6 22.51 633.77 49.81 633.83 81.3L634.04 197.55L700.32 197.55L700.1 74.86L1040.18 74.2Z" />
		</g>
	</g>
</svg>